<?xml version="1.0" standalone="no"?>
<!DOCTYPE svg PUBLIC "-//W3C//DTD SVG 20010904//EN"
 "http://www.w3.org/TR/2001/REC-SVG-20010904/DTD/svg10.dtd">
<svg version="1.0" xmlns="http://www.w3.org/2000/svg"
 width="1024.000000pt" height="1024.000000pt" viewBox="0 0 1024.000000 1024.000000"
 preserveAspectRatio="xMidYMid meet">
<metadata>
Created by potrace 1.11, written by Peter Selinger 2001-2013
</metadata>
<g transform="translate(0.000000,1024.000000) scale(0.100000,-0.100000)"
fill="#000000" stroke="none">
<path d="M1346 9602 c-2 -1 -40 -5 -85 -7 -45 -3 -92 -10 -104 -17 -12 -6 -23
-11 -24 -10 -2 1 -4 2 -5 1 -2 0 -12 -2 -23 -4 -30 -6 -155 -68 -155 -77 0 -4
-6 -8 -12 -8 -41 0 -217 -209 -234 -277 -4 -13 -10 -23 -16 -23 -5 0 -7 -4 -3
-9 3 -5 0 -13 -6 -16 -5 -4 -8 -13 -5 -21 3 -8 0 -14 -6 -14 -6 0 -9 -2 -6 -5
3 -3 -1 -31 -8 -63 -20 -85 -14 -7897 6 -7897 1 0 3 -11 6 -25 2 -14 21 -59
40 -100 52 -107 136 -208 225 -267 44 -31 169 -95 169 -88 0 2 18 -2 41 -10
23 -8 45 -12 50 -9 5 3 9 1 9 -5 0 -6 7 -8 15 -5 8 3 27 2 42 -3 16 -6 40 -7
54 -3 15 4 32 4 39 0 7 -4 25 -4 40 0 15 4 33 4 40 0 6 -4 27 -4 46 0 19 4 36
4 39 0 3 -4 21 -4 40 0 19 4 37 4 40 0 3 -4 21 -4 40 0 19 4 37 4 40 0 3 -4
21 -4 40 0 19 4 37 4 40 0 3 -4 21 -4 40 0 19 4 37 4 40 0 3 -4 20 -5 37 -1
18 4 35 8 38 9 3 1 21 -3 41 -7 21 -5 43 -5 49 -1 7 4 26 4 41 0 16 -5 31 -5
34 -1 2 5 23 5 45 1 22 -4 40 -4 40 0 0 4 20 4 45 0 25 -4 45 -4 45 -1 0 7 89
5 96 -2 3 -3 18 -2 32 2 15 4 38 5 52 1 14 -4 34 -4 45 0 11 4 29 4 41 0 11
-5 26 -5 33 -1 7 5 30 5 52 1 21 -4 39 -4 39 0 0 4 20 4 45 0 25 -4 45 -4 45
-1 0 7 89 5 96 -2 3 -3 18 -2 32 2 15 4 38 5 52 1 14 -4 34 -4 45 0 11 4 28 4
39 1 10 -4 40 -4 67 -1 27 4 49 4 49 1 0 -7 128 -4 146 3 8 3 16 1 19 -3 3 -5
21 -5 40 -1 19 4 37 4 40 0 3 -4 21 -4 40 0 19 4 37 4 40 0 3 -4 21 -4 40 0
19 4 37 4 40 0 3 -4 21 -4 40 0 19 4 37 4 40 0 3 -4 21 -4 40 0 19 4 37 4 40
0 3 -4 21 -4 40 0 19 4 37 4 40 0 3 -4 20 -5 37 -1 33 7 92 5 116 -4 6 -2 12
-1 12 3 0 7 126 6 147 -2 7 -3 15 -2 17 3 3 4 22 5 43 2 21 -4 57 -4 80 -1 23
4 47 4 54 0 6 -4 25 -4 43 0 18 4 41 4 52 -1 12 -4 27 -4 34 1 7 4 24 4 39 0
14 -4 35 -4 46 0 11 4 34 4 52 -1 18 -4 33 -4 33 0 0 4 19 5 43 1 23 -3 63 -3
90 1 26 3 49 3 52 1 7 -7 164 -4 175 3 6 4 10 1 10 -5 0 -6 4 -9 8 -6 10 6 40
7 155 6 42 -1 81 1 86 5 5 3 12 1 15 -4 3 -5 21 -5 41 -1 19 4 37 4 40 0 3 -4
21 -4 40 0 19 4 37 4 40 0 3 -4 21 -4 40 0 19 4 37 4 40 0 3 -4 21 -4 40 0 19
4 37 4 40 0 3 -4 21 -4 40 0 19 4 37 4 40 0 3 -4 21 -4 40 0 19 4 37 4 40 0 3
-4 20 -5 37 -1 18 4 35 8 38 9 3 1 21 -3 41 -7 21 -5 43 -5 49 -1 7 4 26 4 41
0 16 -5 31 -5 34 -1 2 5 23 5 45 1 22 -4 40 -4 40 0 0 4 20 4 45 0 25 -4 45
-4 45 -1 0 7 89 5 96 -2 3 -3 18 -2 32 2 15 4 38 5 52 1 14 -4 34 -4 45 0 11
4 29 4 41 0 11 -5 26 -5 33 -1 7 5 30 5 52 1 21 -4 39 -4 39 0 0 4 20 4 45 0
25 -4 45 -4 45 -1 0 7 89 5 96 -2 3 -3 18 -2 32 2 15 4 38 5 52 1 14 -4 34 -4
45 0 11 4 28 4 39 1 10 -4 40 -4 67 -1 27 4 49 4 49 1 0 -7 128 -4 146 3 8 3
16 1 19 -3 3 -5 21 -5 40 -1 19 4 37 4 40 0 3 -4 21 -4 40 0 19 4 37 4 40 0 3
-4 21 -4 40 0 19 4 37 4 40 0 3 -4 21 -4 40 0 19 4 37 4 40 0 3 -4 21 -4 40 0
19 4 37 4 40 0 3 -4 21 -4 40 0 19 4 37 4 40 0 3 -4 20 -5 37 -1 33 7 92 5
116 -4 6 -2 12 -1 12 3 0 7 126 6 147 -2 7 -3 15 -2 17 3 3 4 22 5 43 2 21 -4
57 -4 80 -1 23 4 47 4 54 0 6 -4 25 -4 43 0 18 4 41 4 52 -1 12 -4 27 -4 34 1
7 4 24 4 39 0 14 -4 35 -4 46 0 11 4 34 4 52 -1 18 -4 33 -4 33 0 0 4 19 5 43
1 23 -3 63 -3 90 1 26 3 49 3 52 1 7 -7 164 -4 175 3 6 4 10 1 10 -5 0 -6 4
-9 8 -6 9 5 19 6 134 7 32 0 65 1 75 3 10 2 41 7 68 11 28 4 55 10 60 13 6 4
18 8 27 9 21 3 146 70 183 98 129 97 230 256 263 415 10 47 10 7786 0 7842 -5
29 -11 62 -13 73 -5 33 -61 150 -96 202 -71 102 -223 223 -301 240 -16 3 -28
9 -28 14 0 5 -10 9 -23 9 -13 0 -27 3 -31 7 -7 8 -14 9 -115 18 -41 3 -78 8
-82 11 -4 2 -10 0 -13 -5 -3 -5 -21 -6 -38 -2 -18 4 -47 4 -65 0 -18 -3 -35
-4 -37 -1 -7 7 -106 8 -106 1 0 -4 -17 -3 -38 1 -20 3 -49 3 -64 -1 -15 -4
-29 -4 -32 -1 -3 3 -34 4 -68 3 -74 -2 -70 -2 -133 -1 -27 1 -54 1 -60 0 -5
-1 -14 -2 -19 -1 -4 1 -27 2 -50 1 -22 0 -49 0 -58 0 -10 0 -42 0 -70 0 -91 0
-112 0 -161 3 -26 1 -47 -2 -47 -6 0 -5 -5 -5 -10 -2 -8 5 -154 7 -270 4 -8 0
-44 0 -80 0 -36 1 -72 1 -80 0 -8 0 -44 0 -80 0 -36 1 -72 1 -80 0 -8 0 -44 0
-80 1 -36 0 -94 0 -130 0 -36 1 -69 1 -75 1 -25 1 -133 0 -160 -2 -16 0 -34
-1 -40 0 -86 5 -115 5 -115 -2 0 -5 -5 -5 -10 -2 -6 4 -31 6 -55 5 -59 -1 -62
-1 -123 2 -28 2 -52 -1 -52 -5 0 -5 -5 -5 -10 -2 -6 4 -31 6 -55 5 -59 -1 -62
-1 -123 2 -28 2 -52 -1 -52 -5 0 -5 -5 -5 -10 -2 -6 4 -31 6 -55 5 -25 0 -53
-1 -62 -1 -107 2 -140 2 -148 1 -6 -1 -14 -2 -20 0 -8 1 -174 1 -230 -1 -5 0
-39 0 -75 0 -36 1 -72 1 -80 0 -8 0 -44 0 -80 0 -36 1 -72 1 -80 0 -8 0 -44 0
-80 0 -36 1 -73 1 -82 0 -10 0 -65 0 -122 1 -57 0 -107 0 -112 -1 -5 -1 -11
-1 -14 0 -14 6 -110 5 -110 0 0 -4 -17 -3 -38 1 -20 3 -49 3 -64 -1 -15 -4
-29 -4 -32 -1 -3 3 -34 4 -68 3 -74 -2 -70 -2 -133 -1 -27 1 -54 1 -60 0 -5
-1 -14 -2 -19 -1 -4 1 -27 2 -50 1 -22 0 -49 0 -58 0 -10 0 -42 0 -70 0 -91 0
-112 0 -161 3 -26 1 -47 -2 -47 -6 0 -5 -5 -5 -10 -2 -8 5 -154 7 -270 4 -8 0
-44 0 -80 0 -36 1 -72 1 -80 0 -8 0 -44 0 -80 0 -36 1 -72 1 -80 0 -8 0 -44 0
-80 1 -36 0 -94 0 -130 0 -36 1 -69 1 -75 1 -25 1 -133 0 -160 -2 -16 0 -34
-1 -40 0 -86 5 -115 5 -115 -2 0 -5 -5 -5 -10 -2 -6 4 -31 6 -55 5 -59 -1 -62
-1 -123 2 -28 2 -52 -1 -52 -5 0 -5 -5 -5 -10 -2 -6 4 -31 6 -55 5 -59 -1 -62
-1 -123 2 -28 2 -52 -1 -52 -5 0 -5 -5 -5 -10 -2 -6 4 -31 6 -55 5 -25 0 -53
-1 -62 -1 -107 2 -140 2 -148 1 -6 -1 -14 -2 -20 0 -8 1 -174 1 -230 -1 -5 0
-39 0 -75 0 -36 1 -72 1 -80 0 -26 0 -154 0 -180 1 -14 1 -45 2 -68 3 -24 1
-45 1 -46 -1z m4006 -1775 c32 -1 58 -4 58 -7 0 -3 15 -6 33 -7 17 0 50 -4 72
-7 38 -6 53 -8 115 -21 14 -2 36 -6 50 -9 96 -16 367 -99 473 -145 26 -11 49
-21 52 -21 3 0 21 -9 40 -20 20 -11 42 -20 49 -20 7 0 19 -7 26 -15 7 -9 15
-14 17 -11 3 2 43 -18 90 -45 46 -27 89 -49 94 -49 5 0 9 -4 9 -10 0 -5 7 -10
15 -10 8 0 15 -4 15 -10 0 -5 5 -10 11 -10 11 0 122 -73 147 -97 7 -7 26 -20
42 -30 17 -9 30 -21 30 -25 0 -4 7 -8 15 -8 8 0 15 -4 15 -9 0 -4 26 -29 58
-54 103 -81 249 -232 361 -372 31 -38 59 -71 64 -73 4 -2 7 -10 7 -18 0 -8 5
-14 10 -14 6 0 10 -7 10 -15 0 -8 4 -15 8 -15 5 0 18 -18 31 -40 12 -22 27
-40 33 -40 6 0 9 -3 5 -6 -3 -4 10 -29 29 -58 18 -28 34 -56 34 -63 0 -6 4
-13 9 -15 9 -3 138 -265 159 -323 6 -16 17 -43 23 -60 7 -16 13 -32 14 -35 1
-3 4 -12 8 -20 10 -26 65 -213 73 -250 4 -19 8 -37 9 -40 13 -56 28 -131 30
-150 2 -14 4 -25 5 -25 3 0 9 -51 12 -92 1 -18 4 -33 7 -33 11 0 17 -440 7
-540 -12 -122 -14 -139 -31 -245 -8 -50 -53 -241 -64 -275 -5 -14 -14 -45 -22
-70 -7 -25 -15 -49 -18 -55 -3 -5 -6 -14 -7 -20 -1 -5 -7 -23 -14 -40 -6 -16
-11 -32 -12 -35 0 -3 -4 -11 -10 -17 -6 -7 -7 -13 -4 -13 4 0 1 -12 -8 -27 -8
-16 -22 -46 -31 -68 -9 -22 -20 -48 -25 -57 -17 -31 -28 -52 -53 -103 -47 -94
-71 -135 -79 -135 -4 0 -8 -9 -8 -20 0 -11 -4 -20 -9 -20 -5 0 -13 -9 -16 -20
-3 -11 -12 -26 -18 -33 -22 -24 -57 -76 -57 -86 0 -5 -4 -11 -8 -13 -4 -1 -25
-25 -45 -53 -39 -53 -65 -85 -109 -137 -16 -17 -28 -35 -28 -40 0 -4 -7 -8
-15 -8 -8 0 -15 -4 -15 -9 0 -26 -266 -269 -390 -357 -30 -21 -56 -42 -58 -46
-2 -5 -10 -8 -18 -8 -8 0 -14 -3 -14 -8 0 -4 -16 -16 -36 -27 -19 -10 -47 -29
-62 -41 -14 -13 -29 -21 -32 -19 -4 2 -21 -6 -39 -19 -18 -13 -47 -30 -64 -37
-18 -7 -34 -16 -37 -19 -14 -16 -311 -145 -358 -155 -9 -2 -44 -13 -77 -24
-32 -12 -68 -23 -80 -26 -11 -2 -35 -8 -52 -14 -18 -5 -33 -7 -33 -4 0 3 -7 0
-15 -7 -8 -7 -15 -10 -15 -7 0 3 -15 1 -32 -4 -30 -8 -250 -45 -288 -48 -8 -1
-40 -3 -71 -5 -31 -2 -60 -5 -65 -8 -14 -6 -331 -2 -404 6 -149 17 -175 20
-256 35 -94 17 -323 77 -374 98 -8 4 -17 7 -20 8 -9 3 -45 17 -135 52 -91 36
-226 100 -300 143 -22 13 -49 28 -60 34 -58 31 -255 168 -255 176 0 6 -5 10
-11 10 -16 0 -182 143 -269 231 -85 86 -185 199 -236 266 -42 55 -174 251
-174 258 0 4 -9 20 -20 35 -20 28 -140 263 -140 274 0 4 -9 25 -19 49 -23 52
-49 119 -66 172 -23 73 -47 154 -47 162 0 5 -4 18 -9 31 -5 13 -11 37 -14 55
-3 18 -10 48 -15 67 -5 19 -11 53 -15 75 -3 22 -8 55 -11 73 -4 17 -7 47 -9
65 -1 17 -4 39 -6 47 -4 13 106 15 941 15 l945 0 1 -215 c0 -235 4 -256 58
-300 l30 -25 716 0 c789 0 762 -2 802 64 l23 36 1 710 c1 698 0 711 -20 748
-40 75 -5 72 -796 72 -684 0 -706 0 -742 -20 -68 -37 -72 -52 -72 -300 l-1
-220 -943 -3 -943 -2 5 52 c3 29 5 53 6 53 1 0 3 11 5 25 5 40 16 100 32 175
20 93 21 100 23 100 1 0 3 9 5 20 7 36 87 280 94 285 3 3 6 10 7 15 0 10 19
54 60 143 13 29 24 57 24 62 0 6 5 10 10 10 6 0 9 3 8 8 -3 8 121 230 155 276
4 6 32 47 63 91 31 44 62 85 68 90 7 6 17 18 22 27 24 43 214 242 319 333 32
28 63 55 69 60 6 6 29 24 51 40 22 17 45 35 51 40 37 32 54 44 54 37 0 -4 4
-2 8 4 7 11 159 112 192 128 8 4 24 12 35 19 25 16 148 81 155 82 3 0 14 6 25
12 60 33 252 106 271 102 4 0 10 3 13 8 5 8 162 56 218 68 10 2 48 10 86 19
72 17 92 20 177 32 30 4 66 8 80 10 14 2 63 6 110 9 46 3 85 7 86 8 2 2 202
-2 346 -6z"/>
</g>
</svg>
